<svg width="132" height="132" viewBox="0 0 132 132" fill="none" xmlns="http://www.w3.org/2000/svg">
<g filter="url(#filter0_d_2_11)">
<circle cx="66" cy="66" r="60" fill="white"/>
</g>
<g clip-path="url(#clip0_2_11)">
<path d="M66 56C59.4 56 56.085 58.105 51.345 65.62L50.125 67.61L48.15 71.05C47.9138 71.4727 47.6788 71.896 47.445 72.32C46.245 74.49 44.59 76.085 41.75 78.03L39 79.855C34.3 82.99 31.84 85.445 30.465 89.63C29.845 91.32 29.485 93.895 29.5 96.03C29.5 104.465 35.49 111 43.5 111L44.71 110.97C45.305 110.94 45.88 110.885 46.48 110.8L47.72 110.585L48.38 110.445L49.835 110.08L50.645 109.855L53.495 109.005L57.31 107.79L59.585 107.11C62.235 106.36 64.285 106 66 106C67.72 106 69.765 106.365 72.415 107.11L74.69 107.79L78.51 109L81.355 109.855L82.915 110.275C83.4 110.395 83.85 110.5 84.28 110.585L85.52 110.8C86.12 110.885 86.695 110.94 87.29 110.97L88.5 111C96.51 111 102.5 104.465 102.5 96C102.5 93.865 102.135 91.305 101.465 89.47C100.285 85.85 98.08 83.355 94.065 80.32L92.78 79.37L90.14 77.47C86.93 75.12 85.125 73.34 83.875 71.08L82.525 68.655L81.265 66.495C76.21 58.015 73.175 56 66 56Z" fill="#67A370"/>
<path d="M105.9 42H105.75C99.655 42.1 94 47.33 91.21 54.52C87.76 63.395 89.47 73.12 96.585 76.185C97.865 76.73 99.22 77 100.59 77C106.745 77 112.49 71.735 115.305 64.48C118.735 55.61 117.005 45.88 109.925 42.82C108.654 42.2785 107.282 41.9996 105.9 42Z" fill="#67A370"/>
<path d="M50.125 20C49.565 20 49.2 20.01 48.775 20.075L48.31 20.155C40.65 21.185 36.325 30.1 37.77 39.43C39.13 48.055 45.08 55 52.37 55L53.305 54.975C53.4455 54.963 53.5856 54.9464 53.725 54.925L54.185 54.845C61.85 53.815 66.17 44.9 64.725 35.57C63.375 26.935 57.425 20 50.125 20Z" fill="#67A370"/>
<path d="M81.86 20C74.565 20 68.625 26.94 67.28 35.565C65.83 44.9 70.15 53.815 78.15 54.9C78.665 54.965 79.15 55 79.63 55C86.58 55 92.345 48.675 94.015 40.585L94.22 39.435C95.67 30.1 91.35 21.185 83.35 20.1C82.8562 20.0322 82.3584 19.9988 81.86 20Z" fill="#67A370"/>
<path d="M26.085 42C24.715 42 23.365 42.27 22.1 42.805C14.97 45.88 13.265 55.615 16.71 64.48C19.525 71.735 25.26 77 31.415 77C32.785 77 34.135 76.73 35.4 76.195C42.53 73.12 44.235 63.385 40.79 54.52C37.975 47.265 32.24 42 26.085 42Z" fill="#67A370"/>
</g>
<defs>
<filter id="filter0_d_2_11" x="0" y="0" width="132" height="132" filterUnits="userSpaceOnUse" color-interpolation-filters="sRGB">
<feFlood flood-opacity="0" result="BackgroundImageFix"/>
<feColorMatrix in="SourceAlpha" type="matrix" values="0 0 0 0 0 0 0 0 0 0 0 0 0 0 0 0 0 0 127 0" result="hardAlpha"/>
<feOffset/>
<feGaussianBlur stdDeviation="3"/>
<feComposite in2="hardAlpha" operator="out"/>
<feColorMatrix type="matrix" values="0 0 0 0 0 0 0 0 0 0 0 0 0 0 0 0 0 0 0.2 0"/>
<feBlend mode="normal" in2="BackgroundImageFix" result="effect1_dropShadow_2_11"/>
<feBlend mode="normal" in="SourceGraphic" in2="effect1_dropShadow_2_11" result="shape"/>
</filter>
<clipPath id="clip0_2_11">
<rect width="120" height="120" fill="white" transform="translate(6 6)"/>
</clipPath>
</defs>
</svg>
