<svg width="132" height="132" viewBox="0 0 132 132" fill="none" xmlns="http://www.w3.org/2000/svg">
<g filter="url(#filter0_d_2_11)">
<circle cx="66" cy="66" r="60" fill="white"/>
</g>
<g clip-path="url(#clip0_2_11)">
<path d="M66 57.6667C60.5 57.6667 57.7375 59.4208 53.7875 65.6833L52.7708 67.3417L51.125 70.2083C50.9282 70.5605 50.7323 70.9133 50.5375 71.2667C49.5375 73.075 48.1583 74.4042 45.7917 76.025L43.5 77.5458C39.5833 80.1583 37.5333 82.2042 36.3875 85.6917C35.8708 87.1 35.5708 89.2458 35.5833 91.025C35.5833 98.0542 40.575 103.5 47.25 103.5L48.2583 103.475C48.7542 103.45 49.2333 103.404 49.7333 103.333L50.7667 103.154L51.3167 103.037L52.5292 102.733L53.2042 102.546L55.5792 101.837L58.7583 100.825L60.6542 100.258C62.8625 99.6333 64.5708 99.3333 66 99.3333C67.4333 99.3333 69.1375 99.6375 71.3458 100.258L73.2417 100.825L76.425 101.833L78.7958 102.546L80.0958 102.896C80.5 102.996 80.875 103.083 81.2333 103.154L82.2667 103.333C82.7667 103.404 83.2458 103.45 83.7417 103.475L84.75 103.5C91.425 103.5 96.4167 98.0542 96.4167 91C96.4167 89.2208 96.1125 87.0875 95.5542 85.5583C94.5708 82.5417 92.7333 80.4625 89.3875 77.9333L88.3167 77.1417L86.1167 75.5583C83.4417 73.6 81.9375 72.1167 80.8958 70.2333L79.7708 68.2125L78.7208 66.4125C74.5083 59.3458 71.9792 57.6667 66 57.6667Z" fill="#8ABD91"/>
<path d="M98.4167 45.1667H98.2917C93.2125 45.25 88.5 49.6083 86.175 55.6C83.3 62.9958 84.725 71.1 90.6542 73.6542C91.7208 74.1083 92.85 74.3333 93.9917 74.3333C99.1208 74.3333 103.908 69.9458 106.254 63.9C109.112 56.5083 107.671 48.4 101.771 45.85C100.712 45.3988 99.568 45.1664 98.4167 45.1667Z" fill="#8ABD91"/>
<path d="M53.6042 28.5C53.1375 28.5 52.8333 28.5083 52.4792 28.5625L52.0917 28.6292C45.7083 29.4875 42.1042 36.9167 43.3083 44.6917C44.4417 51.8792 49.4 57.6667 55.475 57.6667L56.2542 57.6458C56.3713 57.6359 56.488 57.622 56.6042 57.6042L56.9875 57.5375C63.375 56.6792 66.975 49.25 65.7708 41.475C64.6458 34.2792 59.6875 28.5 53.6042 28.5Z" fill="#8ABD91"/>
<path d="M78.3833 28.5C72.3042 28.5 67.3542 34.2833 66.2333 41.4708C65.025 49.25 68.625 56.6792 75.2917 57.5833C75.7208 57.6375 76.125 57.6667 76.525 57.6667C82.3167 57.6667 87.1208 52.3958 88.5125 45.6542L88.6833 44.6958C89.8917 36.9167 86.2917 29.4875 79.625 28.5833C79.2135 28.5269 78.7987 28.499 78.3833 28.5Z" fill="#8ABD91"/>
<path d="M33.5708 45.1667C32.4292 45.1667 31.3042 45.3917 30.25 45.8375C24.3083 48.4 22.8875 56.5125 25.7583 63.9C28.1042 69.9458 32.8833 74.3333 38.0125 74.3333C39.1542 74.3333 40.2792 74.1083 41.3333 73.6625C47.275 71.1 48.6958 62.9875 45.825 55.6C43.4792 49.5542 38.7 45.1667 33.5708 45.1667Z" fill="#8ABD91"/>
</g>
<defs>
<filter id="filter0_d_2_11" x="0" y="0" width="132" height="132" filterUnits="userSpaceOnUse" color-interpolation-filters="sRGB">
<feFlood flood-opacity="0" result="BackgroundImageFix"/>
<feColorMatrix in="SourceAlpha" type="matrix" values="0 0 0 0 0 0 0 0 0 0 0 0 0 0 0 0 0 0 127 0" result="hardAlpha"/>
<feOffset/>
<feGaussianBlur stdDeviation="3"/>
<feComposite in2="hardAlpha" operator="out"/>
<feColorMatrix type="matrix" values="0 0 0 0 0 0 0 0 0 0 0 0 0 0 0 0 0 0 0.2 0"/>
<feBlend mode="normal" in2="BackgroundImageFix" result="effect1_dropShadow_2_11"/>
<feBlend mode="normal" in="SourceGraphic" in2="effect1_dropShadow_2_11" result="shape"/>
</filter>
<clipPath id="clip0_2_11">
<rect width="100" height="100" fill="white" transform="translate(16 16)"/>
</clipPath>
</defs>
</svg>
